<svg xmlns="http://www.w3.org/2000/svg" width="836" height="1254" viewBox="0 0 836 1254">
<g>
<path d="M 443.42 990.25 C442.16,991.51 396.38,990.85 382.00,989.37 C355.67,986.67 318.65,978.63 299.50,971.47 C295.65,970.03 291.38,968.49 290.00,968.04 C284.21,966.16 271.28,960.67 259.56,955.11 C242.93,947.21 214.08,930.14 209.18,925.30 C208.45,924.59 207.52,924.00 207.12,924.00 C206.71,924.00 205.50,923.18 204.43,922.18 C203.35,921.18 201.76,919.95 200.87,919.43 C194.32,915.62 178.00,901.19 161.49,884.59 C146.83,869.87 143.16,865.89 136.71,857.70 C135.49,856.17 133.60,853.84 132.50,852.54 C131.40,851.24 129.82,849.19 129.00,847.99 C128.18,846.78 126.27,844.38 124.77,842.65 C123.26,840.92 122.02,838.94 122.02,838.25 C122.01,837.56 121.55,837.00 121.00,837.00 C120.45,837.00 120.00,836.33 120.00,835.50 C120.00,834.67 119.55,834.00 119.00,834.00 C118.45,834.00 118.00,833.33 118.00,832.50 C118.00,831.67 117.55,831.00 117.00,831.00 C116.45,831.00 116.00,830.33 116.00,829.50 C116.00,828.67 115.55,828.00 115.00,828.00 C114.45,828.00 114.00,827.33 114.00,826.50 C114.00,825.67 113.55,825.00 113.00,825.00 C112.45,825.00 112.00,824.33 112.00,823.50 C112.00,822.67 111.60,822.00 111.12,822.00 C110.63,822.00 109.96,821.21 109.63,820.25 C109.30,819.29 108.12,817.15 107.03,815.50 C105.93,813.85 104.54,811.38 103.95,810.02 C103.36,808.66 102.53,807.31 102.10,807.02 C101.67,806.73 99.80,803.35 97.94,799.50 C96.08,795.65 94.17,792.22 93.70,791.89 C93.22,791.55 92.90,790.97 92.98,790.60 C93.07,790.23 91.50,786.46 89.49,782.22 C83.84,770.26 82.74,767.65 82.03,764.50 C81.90,763.95 81.30,762.60 80.69,761.50 C80.07,760.40 79.52,759.28 79.45,759.00 C79.38,758.72 78.99,757.60 78.57,756.50 C77.24,753.00 76.71,751.53 76.40,750.50 C76.23,749.95 75.33,747.25 74.39,744.50 C73.45,741.75 72.45,738.83 72.17,738.00 C71.39,735.67 71.37,735.59 70.69,734.00 C70.34,733.17 69.58,730.47 69.00,728.00 C68.42,725.53 67.70,722.60 67.41,721.50 C67.12,720.40 66.72,718.83 66.52,718.00 C66.32,717.17 66.06,716.50 65.95,716.50 C65.84,716.50 65.61,715.60 65.44,714.50 C65.27,713.40 64.83,711.15 64.46,709.50 C64.09,707.85 63.67,705.60 63.52,704.50 C63.37,703.40 63.16,702.50 63.04,702.50 C62.83,702.50 62.41,700.53 61.63,695.83 C61.39,694.36 60.94,691.88 60.63,690.33 C60.01,687.24 59.03,680.51 58.40,675.00 C58.18,673.08 57.81,669.92 57.58,668.00 C55.23,648.17 54.66,609.55 56.49,594.50 C56.82,591.75 57.28,587.92 57.51,586.00 C57.73,584.08 58.13,580.92 58.38,579.00 C58.64,577.08 59.12,573.03 59.47,570.00 C59.81,566.97 60.34,563.67 60.64,562.65 C60.95,561.63 61.38,559.72 61.60,558.40 C62.00,555.97 62.75,552.16 63.53,548.50 C63.77,547.40 64.24,544.70 64.58,542.50 C64.93,540.30 65.57,538.05 66.01,537.50 C66.45,536.95 67.08,535.04 67.41,533.25 L 68.59 526.75 C68.92,524.96 69.65,522.94 70.22,522.25 C70.78,521.56 70.91,521.00 70.50,521.00 C70.09,521.00 70.19,520.44 70.72,519.75 C71.25,519.06 72.25,516.25 72.94,513.50 C73.63,510.75 74.45,507.83 74.76,507.00 C75.07,506.17 75.40,505.27 75.50,505.00 C75.60,504.73 75.97,503.71 76.34,502.75 L 77.66 499.25 C78.03,498.29 78.42,497.16 78.54,496.75 C78.65,496.34 78.86,495.66 78.99,495.25 C79.13,494.84 79.18,494.16 79.12,493.75 C79.05,493.34 79.45,493.00 80.00,493.00 C80.55,493.00 80.93,492.66 80.84,492.25 C80.67,491.46 81.45,489.14 83.26,485.00 C83.86,483.62 84.27,482.16 84.17,481.75 C84.08,481.34 84.53,481.00 85.17,481.00 C85.81,481.00 86.03,480.70 85.67,480.33 C85.30,479.97 86.11,477.78 87.47,475.47 C88.82,473.15 89.65,470.98 89.30,470.63 C88.95,470.28 89.19,470.00 89.83,470.00 C90.47,470.00 91.00,469.19 91.00,468.19 C91.00,467.20 92.62,463.71 94.59,460.44 C96.57,457.17 98.87,452.81 99.70,450.75 C100.54,448.69 101.58,447.00 102.03,447.00 C102.48,447.00 103.36,445.42 104.00,443.50 C104.64,441.58 105.46,440.00 105.84,440.00 C106.54,440.00 108.38,436.92 109.57,433.75 C109.94,432.79 110.63,432.00 111.12,432.00 C111.60,432.00 112.00,431.53 112.00,430.95 C112.00,429.76 120.11,417.67 121.25,417.17 C121.66,416.98 122.00,416.40 122.00,415.87 C122.00,415.35 122.46,414.37 123.02,413.71 C125.43,410.84 127.60,408.03 129.00,405.96 C129.82,404.73 131.22,403.00 132.10,402.12 C132.98,401.23 134.11,399.77 134.60,398.89 C137.63,393.44 170.65,359.26 181.37,350.49 C184.04,348.29 187.27,345.60 188.53,344.50 C192.33,341.20 195.61,338.59 197.97,337.00 C199.19,336.17 201.38,334.49 202.84,333.25 C204.30,332.01 205.77,331.00 206.09,331.00 C206.42,331.00 208.00,329.88 209.59,328.50 C211.19,327.13 212.99,326.00 213.60,326.00 C214.20,326.00 215.50,325.10 216.50,324.00 C217.50,322.90 218.92,322.00 219.65,322.00 C220.39,322.00 221.00,321.55 221.00,321.00 C221.00,320.45 221.68,320.00 222.50,320.00 C223.32,320.00 224.00,319.55 224.00,319.00 C224.00,318.45 224.64,318.00 225.43,318.00 C226.21,318.00 227.50,317.36 228.27,316.58 C231.23,313.63 277.88,290.00 280.76,290.00 C281.32,290.00 283.06,289.33 284.64,288.51 C286.21,287.68 288.26,287.01 289.19,287.01 C290.12,287.00 291.11,286.64 291.38,286.20 C291.65,285.75 295.39,284.36 299.69,283.09 C303.98,281.83 308.17,280.46 309.00,280.06 C309.83,279.66 313.65,278.55 317.50,277.59 C321.35,276.63 326.69,275.21 329.36,274.43 C332.04,273.64 335.73,273.00 337.56,273.00 C339.39,273.00 341.14,272.58 341.46,272.06 C341.78,271.55 342.82,271.12 343.77,271.11 C344.72,271.10 347.98,270.62 351.00,270.06 C354.02,269.49 358.98,268.78 362.00,268.48 C365.02,268.18 372.67,267.22 379.00,266.35 C391.45,264.64 434.35,264.08 448.00,265.44 C452.12,265.86 456.79,266.16 458.37,266.13 C459.95,266.09 461.98,266.45 462.88,266.93 C463.77,267.41 468.52,268.10 473.44,268.47 C478.35,268.83 483.07,269.49 483.93,269.93 C484.80,270.37 486.08,270.52 486.78,270.27 C487.49,270.02 488.71,270.34 489.49,270.99 C490.27,271.64 491.40,271.87 492.00,271.50 C492.60,271.13 493.72,271.36 494.50,272.00 C495.28,272.64 496.38,272.88 496.96,272.53 C497.53,272.17 498.55,272.22 499.21,272.63 C499.88,273.04 502.01,273.54 503.94,273.74 C505.87,273.94 507.74,274.59 508.11,275.18 C508.48,275.77 509.33,275.92 510.00,275.50 C510.67,275.08 511.52,275.22 511.88,275.81 C512.24,276.39 514.78,277.14 517.52,277.47 C520.26,277.79 522.65,278.50 522.84,279.04 C523.02,279.57 523.63,279.73 524.20,279.38 C524.76,279.03 525.54,279.25 525.92,279.87 C526.30,280.49 529.24,281.48 532.46,282.08 C535.67,282.67 538.94,283.80 539.72,284.58 C541.08,285.94 543.05,286.43 545.75,286.07 C546.44,285.99 547.00,286.37 547.00,286.92 C547.00,287.48 547.62,287.70 548.37,287.41 C549.13,287.12 550.37,287.51 551.13,288.27 C551.89,289.04 553.08,289.47 553.76,289.25 C554.44,289.02 555.00,289.32 555.00,289.92 C555.00,290.51 556.06,291.00 557.35,291.00 C558.64,291.00 560.72,291.89 561.98,292.98 C563.23,294.07 564.62,294.74 565.05,294.47 C566.11,293.81 571.00,296.08 571.00,297.22 C571.00,297.71 571.45,297.84 572.00,297.50 C572.55,297.16 573.00,297.39 573.00,298.00 C573.00,298.61 573.43,298.85 573.96,298.53 C575.16,297.78 588.88,304.58 591.28,307.10 C592.26,308.13 594.28,309.27 595.78,309.63 C597.27,309.99 599.31,311.12 600.29,312.14 C601.27,313.16 602.97,314.00 604.07,314.00 C605.17,314.00 606.32,314.67 606.64,315.50 C606.95,316.33 608.08,317.00 609.14,317.00 C610.20,317.00 611.32,317.67 611.64,318.50 C611.95,319.33 612.84,320.00 613.61,320.00 C614.37,320.00 615.00,320.45 615.00,321.00 C615.00,321.55 615.67,322.00 616.50,322.00 C617.33,322.00 618.00,322.45 618.00,323.00 C618.00,323.55 618.67,324.00 619.50,324.00 C620.33,324.00 621.00,324.45 621.00,325.00 C621.00,325.55 621.67,326.00 622.50,326.00 C623.33,326.00 624.00,326.45 624.00,327.00 C624.00,327.55 624.67,328.00 625.50,328.00 C626.33,328.00 627.00,328.42 627.00,328.93 C627.00,329.45 627.97,330.17 629.17,330.55 C630.36,330.93 632.32,332.20 633.53,333.37 C634.74,334.54 636.73,336.17 637.96,337.00 C639.18,337.83 640.98,339.17 641.96,340.00 C642.94,340.83 645.22,342.62 647.03,344.00 C663.21,356.28 682.58,375.53 699.85,396.50 C710.35,409.24 708.57,406.87 718.28,421.14 C749.79,467.47 769.07,516.20 776.97,569.50 C782.71,608.24 782.16,654.69 775.51,692.94 C773.61,703.91 770.30,718.62 769.09,721.50 C768.62,722.60 767.68,725.97 766.99,729.00 C766.31,732.03 765.41,734.95 765.00,735.50 C764.60,736.05 763.71,738.86 763.03,741.75 C762.35,744.64 761.39,747.26 760.90,747.56 C760.40,747.87 760.00,749.19 760.00,750.50 C760.00,751.81 759.55,753.16 759.00,753.50 C758.45,753.84 758.00,754.81 758.00,755.66 C758.00,756.50 757.28,758.84 756.40,760.85 C755.52,762.86 754.35,765.62 753.81,767.00 C753.26,768.38 752.02,771.08 751.05,773.00 C750.09,774.92 748.99,777.74 748.63,779.25 C748.26,780.76 747.52,782.00 746.98,782.00 C746.44,782.00 746.00,782.48 746.00,783.06 C746.00,784.45 739.00,799.07 737.41,801.00 C736.73,801.83 734.88,804.97 733.31,808.00 C730.87,812.68 728.46,816.74 722.50,826.21 C721.95,827.08 720.04,829.89 718.25,832.45 C716.46,835.01 715.00,837.53 715.00,838.05 C715.00,838.57 714.65,839.00 714.22,839.00 C713.78,839.00 712.57,840.46 711.51,842.25 C710.46,844.04 708.67,846.49 707.55,847.70 C704.63,850.84 703.59,852.16 701.42,855.51 C700.36,857.14 698.83,859.18 698.00,860.05 C697.17,860.92 693.42,865.08 689.65,869.30 C673.06,887.86 653.92,905.76 637.00,918.53 C633.42,921.23 629.93,923.99 629.23,924.66 C628.54,925.34 626.17,926.90 623.98,928.13 C621.79,929.36 620.00,930.74 620.00,931.18 C620.00,931.63 619.58,932.00 619.06,932.00 C618.18,932.00 605.12,939.78 604.00,940.97 C602.94,942.09 599.31,944.13 594.75,946.16 C592.14,947.32 590.00,948.56 590.00,948.92 C590.00,949.28 585.39,951.75 579.75,954.40 C574.11,957.05 567.92,960.01 566.00,960.98 C564.08,961.96 561.04,963.07 559.25,963.45 C557.46,963.84 556.00,964.47 556.00,964.84 C556.00,965.67 546.89,969.00 544.62,969.00 C543.73,969.00 543.00,969.45 543.00,970.00 C543.00,970.55 541.99,971.00 540.75,971.01 C539.51,971.01 537.34,971.62 535.93,972.35 C532.56,974.11 519.72,978.00 517.29,978.00 C516.25,978.00 514.97,978.41 514.45,978.91 C513.46,979.86 495.24,984.08 484.00,985.96 C480.42,986.56 474.58,987.56 471.00,988.20 C467.42,988.83 459.92,989.38 454.33,989.42 C448.74,989.47 443.83,989.84 443.42,990.25 ZM 152.98 694.43 L 153.95 697.00 L 184.00 697.00 L 184.12 658.25 C184.18,636.94 184.54,618.15 184.91,616.50 L 185.58 613.50 L 186.85 615.80 C187.55,617.07 188.76,620.89 189.53,624.30 C190.31,627.71 191.59,632.75 192.39,635.50 C200.65,663.96 203.00,672.19 203.00,672.59 C203.00,672.85 208.70,672.93 215.66,672.78 C225.96,672.55 228.37,672.22 228.60,671.00 C228.76,670.17 229.16,668.15 229.48,666.50 C229.80,664.85 230.34,662.83 230.69,662.00 C231.04,661.17 231.40,660.28 231.50,660.00 C231.60,659.72 231.93,658.83 232.26,658.00 C232.58,657.17 233.06,655.38 233.33,654.00 C233.60,652.62 234.11,650.38 234.47,649.00 C234.83,647.62 235.28,645.83 235.48,645.00 C235.68,644.17 235.92,643.50 236.00,643.50 C236.08,643.50 236.33,642.83 236.54,642.00 C236.75,641.17 237.41,638.70 238.00,636.50 C238.59,634.30 239.25,631.83 239.46,631.00 C239.67,630.17 239.95,629.28 240.08,629.00 C240.20,628.72 240.41,628.05 240.54,627.50 C240.66,626.95 240.86,626.28 240.96,626.00 C241.29,625.16 241.87,622.64 242.47,619.50 C243.17,615.82 245.05,612.00 246.16,612.00 C246.61,612.00 247.10,631.01 247.24,654.25 L 247.50 696.50 L 278.01 697.05 L 277.50 525.50 L 258.90 525.23 L 240.31 524.96 L 236.62 539.73 C234.59,547.85 232.53,555.23 232.03,556.13 C231.54,557.03 230.64,560.40 230.05,563.63 C229.45,566.86 228.05,572.88 226.93,577.00 C225.81,581.12 224.20,587.64 223.35,591.48 C222.51,595.32 221.47,599.15 221.04,599.98 C220.61,600.82 219.95,603.63 219.57,606.23 C219.19,608.83 218.46,611.22 217.94,611.54 C217.42,611.86 217.00,612.99 217.00,614.06 C217.00,616.34 215.72,616.57 214.08,614.60 C212.98,613.27 212.42,611.53 211.33,606.00 C211.06,604.62 210.58,602.83 210.26,602.00 C209.93,601.17 209.58,600.16 209.46,599.75 C209.35,599.34 209.13,598.66 208.97,598.25 C208.82,597.84 208.61,597.05 208.50,596.50 C208.39,595.95 208.05,594.83 207.73,594.00 C207.19,592.58 206.74,590.56 205.39,583.50 C205.07,581.85 204.45,580.05 204.00,579.50 C203.55,578.95 202.94,577.15 202.65,575.50 C201.28,567.92 200.88,566.25 199.53,562.50 C198.73,560.30 197.81,557.15 197.49,555.50 C196.85,552.28 196.27,549.81 195.96,549.00 C195.86,548.72 195.68,548.05 195.58,547.50 C195.47,546.95 195.11,545.83 194.77,545.00 C194.19,543.57 193.34,539.87 192.60,535.50 C192.41,534.40 192.16,533.50 192.05,533.50 C191.94,533.50 191.70,532.83 191.52,532.00 C191.34,531.17 190.72,529.26 190.12,527.75 L 189.05 525.00 L 153.25 525.00 L 152.62 528.12 C151.57,533.42 151.90,691.60 152.98,694.43 ZM 289.00 695.71 C289.00,697.54 321.60,697.58 323.32,695.75 C324.98,693.99 326.75,690.03 327.44,686.50 C327.93,684.02 328.49,681.65 328.92,680.25 C328.97,680.11 329.03,679.66 329.07,679.25 C329.11,678.84 329.86,677.71 330.73,676.75 C332.15,675.18 334.65,675.00 354.90,675.01 C367.33,675.02 378.48,675.29 379.67,675.61 C382.11,676.26 383.33,678.88 385.11,687.29 C385.91,691.05 386.29,693.28 387.60,694.60 C389.49,696.51 393.31,696.51 403.11,696.50 C403.62,696.50 404.13,696.50 404.67,696.50 C418.14,696.50 420.48,696.28 420.36,695.00 C420.22,693.57 419.21,688.64 418.62,686.50 C416.69,679.61 416.05,677.04 415.62,674.50 C414.71,669.16 413.94,665.54 413.27,663.50 C412.91,662.40 412.51,661.05 412.37,660.50 C412.23,659.95 411.82,658.38 411.46,657.00 C411.11,655.62 410.83,653.72 410.84,652.77 C410.86,651.82 410.47,650.79 409.98,650.49 C409.49,650.18 409.32,649.32 409.61,648.57 C409.90,647.82 409.69,646.92 409.14,646.59 C408.59,646.25 407.83,643.49 407.45,640.47 C407.08,637.45 406.39,634.74 405.93,634.45 C405.47,634.17 405.32,633.32 405.61,632.57 C405.90,631.82 405.65,630.90 405.05,630.53 C404.46,630.16 404.24,629.42 404.57,628.89 C404.90,628.35 404.74,627.37 404.21,626.71 C403.68,626.04 402.71,622.36 402.05,618.52 C401.40,614.68 400.50,611.08 400.07,610.52 C399.63,609.96 399.23,608.83 399.18,608.00 C399.04,605.70 397.07,596.69 396.35,595.00 C395.99,594.17 395.57,593.05 395.41,592.50 C394.72,590.12 393.79,586.32 393.33,584.00 C393.06,582.62 392.58,580.83 392.27,580.00 C391.32,577.51 390.12,573.01 389.33,569.00 C389.06,567.62 388.58,565.83 388.27,565.00 C387.95,564.17 387.61,563.05 387.50,562.50 C387.39,561.95 387.18,561.16 387.03,560.75 C386.87,560.34 386.65,559.66 386.54,559.25 C386.42,558.84 386.07,557.83 385.74,557.00 C385.20,555.59 384.75,553.60 383.39,546.50 C383.07,544.85 382.45,543.05 382.00,542.50 C381.55,541.95 380.90,539.92 380.56,538.00 C378.33,525.71 377.13,525.00 358.61,525.00 C351.20,525.00 343.99,525.43 342.59,525.96 C339.59,527.11 338.40,529.74 333.43,546.21 C331.39,552.97 329.39,558.95 328.97,559.50 C328.56,560.05 327.67,563.20 327.01,566.50 C326.34,569.80 325.24,573.85 324.55,575.50 C323.86,577.15 322.77,580.75 322.12,583.50 C321.48,586.25 319.41,593.45 317.52,599.50 C315.64,605.55 312.66,615.45 310.91,621.50 C309.16,627.55 307.35,632.98 306.89,633.57 C306.43,634.16 305.35,637.76 304.49,641.57 C302.83,648.90 299.47,660.15 297.95,663.50 C297.44,664.60 296.55,667.75 295.97,670.50 C295.38,673.25 293.57,679.76 291.95,684.96 C290.33,690.16 289.00,695.00 289.00,695.71 ZM 476.00 699.06 C477.38,699.51 481.20,699.60 484.50,699.27 C487.80,698.94 491.40,698.59 492.50,698.50 C493.60,698.42 495.17,698.09 496.00,697.79 C496.83,697.48 499.52,696.70 502.00,696.05 C506.90,694.78 515.30,690.95 515.83,689.75 C516.02,689.34 516.64,689.00 517.21,689.00 C518.65,689.00 529.97,677.78 529.99,676.33 C529.99,675.69 530.34,675.02 530.75,674.83 C531.76,674.38 536.85,663.85 537.43,661.00 C537.48,660.72 537.91,659.91 538.37,659.18 C538.82,658.46 538.93,657.60 538.61,657.28 C538.28,656.95 538.45,656.17 538.97,655.53 C539.50,654.89 539.98,644.92 540.04,632.98 C540.14,613.60 539.99,611.46 538.39,610.29 C537.18,609.41 532.89,609.00 524.83,609.00 L 513.04 609.00 L 494.50 597.46 C484.30,591.11 475.29,585.66 474.47,585.35 C473.65,585.03 472.31,585.33 471.49,586.01 C469.24,587.87 469.26,648.14 471.51,650.01 C473.82,651.92 479.59,650.66 488.18,646.35 C489.21,645.84 490.19,645.34 491.13,644.87 C504.35,638.23 508.99,635.90 510.44,637.19 C511.23,637.88 511.08,639.63 510.85,642.32 C510.82,642.68 510.79,643.05 510.76,643.43 C510.15,651.03 507.50,656.36 501.67,661.73 C496.00,666.96 491.00,668.35 480.00,667.75 C468.35,667.12 461.61,664.37 454.10,657.19 C449.02,652.32 440.80,640.00 442.63,640.00 C442.97,640.00 442.68,639.33 442.00,638.50 C441.32,637.67 441.09,637.00 441.50,637.00 C441.91,637.00 441.74,636.40 441.13,635.66 C440.52,634.92 440.30,634.03 440.65,633.68 C441.00,633.33 440.85,632.47 440.32,631.77 C438.97,629.98 438.62,626.20 438.59,613.00 C438.55,601.13 439.07,595.87 440.84,590.23 C441.41,588.43 441.91,586.75 441.96,586.49 C442.91,581.65 447.50,573.40 451.85,568.74 C457.51,562.68 461.88,560.00 468.71,558.41 C476.13,556.69 493.00,557.86 493.00,560.10 C493.00,560.66 493.45,560.84 494.00,560.50 C494.55,560.16 495.00,560.33 495.00,560.87 C495.00,561.42 496.01,562.18 497.25,562.56 C499.96,563.39 507.39,570.88 509.32,574.73 C510.08,576.25 511.31,579.61 512.05,582.19 C513.66,587.77 514.17,587.97 526.82,587.99 C533.33,588.00 536.55,587.59 537.49,586.65 C539.48,584.66 538.77,572.90 536.13,564.25 C535.59,562.46 535.35,561.00 535.60,561.00 C535.86,561.00 535.51,559.99 534.83,558.75 C534.15,557.51 533.50,555.92 533.38,555.20 C533.26,554.49 532.58,553.20 531.87,552.34 C531.16,551.49 530.11,550.02 529.54,549.08 C525.19,541.94 523.25,539.65 519.00,536.59 C494.66,519.11 466.40,518.81 442.26,535.77 C438.83,538.19 435.03,541.59 433.81,543.33 C432.59,545.07 431.35,546.72 431.04,547.00 C429.85,548.07 425.12,555.84 422.79,560.55 C420.50,565.20 416.77,577.13 414.06,588.50 C413.40,591.25 412.61,598.90 412.31,605.50 C411.44,624.34 416.00,648.11 423.25,662.50 C429.45,674.80 437.66,684.81 442.93,686.48 C444.07,686.84 445.00,687.55 445.00,688.07 C445.00,688.58 445.67,689.00 446.50,689.00 C447.33,689.00 448.00,689.44 448.00,689.98 C448.00,691.28 455.56,695.10 456.43,694.24 C456.80,693.86 457.48,694.16 457.94,694.90 C458.40,695.64 459.96,696.25 461.40,696.25 C462.85,696.25 464.25,696.60 464.52,697.03 C464.78,697.46 465.90,697.58 467.00,697.29 C468.20,696.98 469.00,697.26 469.00,697.99 C469.00,698.74 469.88,699.03 471.25,698.73 C472.49,698.47 474.62,698.61 476.00,699.06 ZM 647.23 697.85 C648.28,698.88 665.66,698.25 671.50,696.97 C682.40,694.58 698.40,683.62 700.46,677.13 C700.83,675.96 701.50,675.00 701.95,675.00 C702.39,675.00 703.22,673.76 703.78,672.25 C704.35,670.74 705.15,668.60 705.57,667.50 C705.99,666.40 706.37,665.28 706.43,665.00 C706.48,664.72 706.88,663.95 707.31,663.27 C709.70,659.51 710.06,634.73 707.76,632.43 C707.42,632.09 707.38,631.17 707.68,630.40 C707.97,629.63 707.72,629.00 707.11,629.00 C706.50,629.00 706.07,628.66 706.15,628.25 C706.50,626.57 702.92,620.17 699.36,616.11 C694.17,610.19 687.34,605.78 668.05,595.92 C652.31,587.87 644.75,582.47 642.24,577.50 C641.68,576.40 641.22,572.47 641.21,568.76 C641.19,561.00 642.94,557.89 648.67,555.49 C652.42,553.93 661.69,553.70 662.59,555.15 C662.89,555.63 663.56,555.77 664.07,555.46 C664.58,555.14 665.00,555.39 665.00,556.00 C665.00,556.61 665.45,556.84 666.00,556.50 C666.55,556.16 667.00,556.36 667.00,556.94 C667.00,557.52 667.64,558.00 668.42,558.00 C670.48,558.00 674.33,564.76 674.96,569.46 L 675.50 573.50 L 689.72 573.78 L 703.95 574.05 L 704.60 571.46 C705.50,567.88 704.39,555.17 703.03,553.54 C702.42,552.80 701.73,551.20 701.49,549.97 C701.26,548.73 700.37,546.96 699.53,546.03 C698.69,545.10 698.00,544.02 698.00,543.63 C698.00,541.13 688.68,532.64 682.21,529.23 C673.08,524.43 664.15,522.65 653.06,523.41 C647.87,523.77 643.15,524.44 642.56,524.90 C641.98,525.36 639.25,526.47 636.50,527.37 C625.60,530.94 614.25,543.02 610.65,554.88 C606.45,568.73 607.94,585.40 614.36,596.35 C617.60,601.88 627.69,612.00 629.96,612.00 C630.53,612.00 631.00,612.43 631.00,612.96 C631.00,613.49 632.80,614.41 635.00,615.00 C637.20,615.59 639.00,616.51 639.00,617.03 C639.00,618.16 662.27,630.00 664.48,630.00 C665.32,630.00 666.00,630.46 666.00,631.01 C666.00,631.57 667.40,632.88 669.10,633.92 C674.18,637.00 676.93,642.51 676.97,649.64 C677.00,655.10 676.64,656.23 673.75,659.80 C669.83,664.64 667.16,666.02 660.26,666.73 C651.47,667.65 642.43,662.86 639.05,655.50 C637.25,651.59 636.98,650.36 636.82,645.20 C636.61,638.73 634.95,638.00 620.50,638.00 C611.06,638.00 607.95,638.35 606.16,639.60 C604.84,640.53 604.10,641.82 604.42,642.66 C604.73,643.46 604.54,643.83 603.99,643.49 C602.84,642.79 602.71,646.62 603.65,653.43 C604.09,656.64 604.57,657.72 605.18,656.82 C605.73,655.99 605.82,656.52 605.42,658.26 C605.04,659.87 605.27,661.63 605.97,662.47 C606.63,663.26 608.74,667.18 610.66,671.19 C614.78,679.78 623.42,688.98 629.75,691.52 C632.09,692.45 634.00,693.57 634.00,694.00 C634.00,695.12 636.69,696.01 641.94,696.61 C644.45,696.90 646.83,697.46 647.23,697.85 ZM 555.89 695.37 C557.11,696.83 559.29,697.01 572.86,696.77 C588.36,696.50 588.45,696.49 589.71,694.00 C591.65,690.18 591.54,527.69 589.59,526.08 C588.67,525.32 582.95,525.04 571.93,525.22 L 555.63 525.50 L 554.78 528.77 C554.31,530.57 554.06,568.41 554.22,612.87 C554.45,680.17 554.73,693.97 555.89,695.37 ZM 377.56 661.96 C372.88,665.18 372.46,665.27 361.89,665.39 C355.48,665.46 349.48,664.99 347.26,664.25 C343.60,663.02 332.00,653.05 332.00,651.13 C332.00,650.60 331.66,650.02 331.25,649.83 C330.28,649.40 325.76,640.08 325.31,637.58 C325.12,636.52 324.60,635.17 324.16,634.58 C322.08,631.76 322.02,607.32 324.10,604.50 C324.50,603.95 324.92,603.05 325.03,602.50 C325.34,600.93 329.32,592.64 330.46,591.18 C335.93,584.21 340.73,581.26 348.79,579.95 C355.26,578.90 366.56,580.42 368.78,582.64 C369.53,583.39 370.81,584.00 371.63,584.00 C373.91,584.00 382.56,593.03 386.43,599.46 C392.35,609.28 394.28,617.34 393.82,630.32 C393.48,639.72 393.02,642.32 390.91,646.64 C387.76,653.09 383.73,657.72 377.56,661.96 ZM 374.25 623.97 L 374.48 624.06 C375.82,624.60 376.52,624.88 377.16,624.78 C377.90,624.67 378.56,624.06 380.03,622.75 C384.28,618.98 383.42,615.71 377.10,611.54 C370.14,606.96 361.03,604.19 348.79,602.93 C337.92,601.82 335.43,602.44 334.40,606.53 C333.41,610.48 334.70,613.71 337.55,614.42 C338.96,614.78 344.01,615.28 348.77,615.55 C353.53,615.81 357.84,616.44 358.34,616.94 C358.84,617.44 359.86,617.61 360.62,617.31 C361.38,617.02 362.00,617.24 362.00,617.80 C362.00,618.36 364.25,619.39 367.00,620.10 C369.75,620.80 372.00,621.76 372.00,622.22 C372.00,622.68 373.01,623.47 374.25,623.97 ZM 367.25 641.88 C372.27,643.33 373.84,643.16 374.96,641.07 C377.45,636.42 375.00,633.26 365.97,629.49 C360.69,627.29 357.90,626.78 350.80,626.73 C345.09,626.69 341.57,627.11 340.55,627.96 C338.75,629.45 338.53,633.25 340.08,636.15 C341.03,637.92 341.77,638.08 346.14,637.48 C351.39,636.76 364.00,638.60 364.00,640.08 C364.00,640.56 365.46,641.37 367.25,641.88 Z" fill="rgb(252,57,43)"/>
<path d="M 636.97 648.32 C636.69,646.91 636.28,645.16 635.91,643.75 L 634.92 640.00 L 621.16 640.00 C611.79,640.00 607.02,640.38 606.20,641.20 C603.43,643.97 605.64,659.48 609.98,669.80 C608.27,666.31 606.55,663.17 605.97,662.47 C605.27,661.63 605.04,659.87 605.42,658.26 C605.82,656.52 605.73,655.99 605.18,656.82 C604.57,657.72 604.09,656.64 603.65,653.43 C602.71,646.62 602.84,642.79 603.99,643.49 C604.54,643.83 604.73,643.46 604.42,642.66 C604.10,641.82 604.84,640.53 606.16,639.60 C607.95,638.35 611.06,638.00 620.50,638.00 C634.95,638.00 636.61,638.73 636.82,645.20 C636.86,646.43 636.90,647.44 636.97,648.32 ZM 368.86 665.94 C361.57,667.63 354.60,667.12 348.31,664.52 C351.05,665.10 356.31,665.45 361.89,665.39 C368.13,665.32 370.83,665.26 372.97,664.56 C371.60,665.16 370.22,665.63 368.86,665.94 ZM 443.42 990.25 C443.83,989.84 448.74,989.47 454.33,989.42 C457.19,989.40 460.54,989.25 463.61,989.02 C460.68,989.38 457.74,989.71 454.79,990.01 C451.13,990.39 445.38,990.63 438.60,990.76 C441.42,990.65 443.18,990.48 443.42,990.25 ZM 615.95 679.62 C620.26,685.01 625.78,689.93 629.75,691.52 C625.50,689.82 620.22,685.12 615.95,679.62 ZM 343.19 661.85 C341.29,660.63 339.47,659.20 337.75,657.56 C337.51,657.33 337.27,657.10 337.03,656.87 C338.99,658.62 341.22,660.44 343.19,661.85 ZM 411.83 990.74 C399.93,990.52 388.65,990.06 382.00,989.37 C388.17,990.01 400.10,990.49 411.83,990.74 ZM 500.02 982.78 C506.84,981.26 512.76,979.75 514.17,979.08 C512.87,979.70 507.73,981.09 502.00,982.35 C501.34,982.49 500.68,982.64 500.02,982.78 ZM 647.16 663.96 C651.04,666.14 655.68,667.21 660.26,666.73 C655.55,667.22 650.98,666.15 647.16,663.96 ZM 377.56 661.96 C379.02,660.95 380.37,659.92 381.61,658.85 C379.94,660.35 378.18,661.67 376.37,662.77 C376.74,662.52 377.13,662.25 377.56,661.96 ZM 324.64 603.56 C324.79,603.25 324.89,602.95 324.91,602.75 C324.97,602.19 325.94,599.94 327.07,597.56 C326.04,599.74 325.17,601.80 325.03,602.50 C324.97,602.79 324.83,603.18 324.64,603.56 ZM 639.15 655.72 C638.79,655.03 638.48,654.32 638.21,653.58 C638.44,654.16 638.72,654.78 639.05,655.50 C639.08,655.57 639.12,655.65 639.15,655.72 Z" fill="rgb(252,43,30)"/>
<path d="M 216.85 615.18 C216.82,615.56 216.80,615.95 216.80,616.33 C216.80,622.13 215.32,622.71 214.09,617.38 C213.71,615.72 213.27,613.90 212.91,612.49 C213.26,613.43 213.63,614.05 214.08,614.60 C215.39,616.18 216.47,616.34 216.85,615.18 ZM 221.45 598.87 C221.31,599.34 221.19,599.72 221.08,600.00 C220.68,601.08 220.15,603.12 219.76,605.01 C220.15,602.80 220.67,600.69 221.04,599.98 C221.14,599.78 221.29,599.39 221.45,598.87 ZM 217.95 611.53 C217.90,611.61 217.85,611.67 217.81,611.72 C217.48,612.12 217.18,613.02 217.00,614.07 L 217.00 614.06 C217.00,612.99 217.42,611.86 217.94,611.54 ZM 225.79 581.34 C226.19,579.76 226.58,578.27 226.93,577.00 C227.57,574.64 228.30,571.67 228.92,568.96 C228.30,571.67 227.57,574.64 226.93,577.00 C226.58,578.28 226.19,579.78 225.79,581.34 Z" fill="rgb(252,23,13)"/>
<path d="M 184.06 676.17 L 183.83 650.00 C183.59,624.15 183.76,603.00 184.20,603.00 C184.64,603.00 185.00,605.05 185.00,607.55 C185.00,610.05 185.71,613.47 186.57,615.14 C186.72,615.42 186.88,615.77 187.05,616.18 C186.98,616.04 186.91,615.91 186.85,615.80 L 185.58 613.50 L 184.91 616.50 C184.54,618.15 184.18,636.94 184.12,658.25 Z" fill="rgb(251,92,80)"/>
<path d="M 0.00 627.00 L 0.00 0.00 L 418.00 0.00 L 836.00 0.00 L 836.00 627.00 L 836.00 1254.00 L 418.00 1254.00 L 0.00 1254.00 L 0.00 627.00 ZM 454.79 990.01 C470.36,988.43 485.41,985.99 502.00,982.35 C508.33,980.96 513.93,979.42 514.45,978.91 C514.97,978.41 516.25,978.00 517.29,978.00 C519.72,978.00 532.56,974.11 535.93,972.35 C537.34,971.62 539.51,971.01 540.75,971.01 C541.99,971.00 543.00,970.55 543.00,970.00 C543.00,969.45 543.73,969.00 544.62,969.00 C546.89,969.00 556.00,965.67 556.00,964.84 C556.00,964.47 557.46,963.84 559.25,963.45 C561.04,963.07 564.08,961.96 566.00,960.98 C567.92,960.01 574.11,957.05 579.75,954.40 C585.39,951.75 590.00,949.28 590.00,948.92 C590.00,948.56 592.14,947.32 594.75,946.16 C599.31,944.13 602.94,942.09 604.00,940.97 C605.12,939.78 618.18,932.00 619.06,932.00 C619.58,932.00 620.00,931.63 620.00,931.18 C620.00,930.74 621.79,929.36 623.98,928.13 C626.17,926.90 628.54,925.34 629.23,924.66 C629.93,923.99 633.42,921.23 637.00,918.53 C653.92,905.76 673.06,887.86 689.65,869.30 C693.42,865.08 697.17,860.92 698.00,860.05 C698.83,859.18 700.36,857.14 701.42,855.51 C703.59,852.16 704.63,850.84 707.55,847.70 C708.67,846.49 710.46,844.04 711.51,842.25 C712.57,840.46 713.78,839.00 714.22,839.00 C714.65,839.00 715.00,838.57 715.00,838.05 C715.00,837.53 716.46,835.01 718.25,832.45 C720.04,829.89 721.95,827.08 722.50,826.21 C728.46,816.74 730.87,812.68 733.31,808.00 C734.88,804.97 736.73,801.83 737.41,801.00 C739.00,799.07 746.00,784.45 746.00,783.06 C746.00,782.48 746.44,782.00 746.98,782.00 C747.52,782.00 748.26,780.76 748.63,779.25 C748.99,777.74 750.09,774.92 751.05,773.00 C752.02,771.08 753.26,768.38 753.81,767.00 C754.35,765.62 755.52,762.86 756.40,760.85 C757.28,758.84 758.00,756.50 758.00,755.66 C758.00,754.81 758.45,753.84 759.00,753.50 C759.55,753.16 760.00,751.81 760.00,750.50 C760.00,749.19 760.40,747.87 760.90,747.56 C761.39,747.26 762.35,744.64 763.03,741.75 C763.71,738.86 764.60,736.05 765.00,735.50 C765.41,734.95 766.31,732.03 766.99,729.00 C767.68,725.97 768.62,722.60 769.09,721.50 C770.30,718.62 773.61,703.91 775.51,692.94 C782.16,654.69 782.71,608.24 776.97,569.50 C769.07,516.20 749.79,467.47 718.28,421.14 C708.57,406.87 710.35,409.24 699.85,396.50 C682.58,375.53 663.21,356.28 647.03,344.00 C645.22,342.62 642.94,340.83 641.96,340.00 C640.98,339.17 639.18,337.83 637.96,337.00 C636.73,336.17 634.74,334.54 633.53,333.37 C632.32,332.20 630.36,330.93 629.17,330.55 C627.97,330.17 627.00,329.45 627.00,328.93 C627.00,328.42 626.33,328.00 625.50,328.00 C624.67,328.00 624.00,327.55 624.00,327.00 C624.00,326.45 623.33,326.00 622.50,326.00 C621.67,326.00 621.00,325.55 621.00,325.00 C621.00,324.45 620.33,324.00 619.50,324.00 C618.67,324.00 618.00,323.55 618.00,323.00 C618.00,322.45 617.33,322.00 616.50,322.00 C615.67,322.00 615.00,321.55 615.00,321.00 C615.00,320.45 614.37,320.00 613.61,320.00 C612.84,320.00 611.95,319.33 611.64,318.50 C611.32,317.67 610.20,317.00 609.14,317.00 C608.08,317.00 606.95,316.33 606.64,315.50 C606.32,314.67 605.17,314.00 604.07,314.00 C602.97,314.00 601.27,313.16 600.29,312.14 C599.31,311.12 597.27,309.99 595.78,309.63 C594.28,309.27 592.26,308.13 591.28,307.10 C588.88,304.58 575.16,297.78 573.96,298.53 C573.43,298.85 573.00,298.61 573.00,298.00 C573.00,297.39 572.55,297.16 572.00,297.50 C571.45,297.84 571.00,297.71 571.00,297.22 C571.00,296.08 566.11,293.81 565.05,294.47 C564.62,294.74 563.23,294.07 561.98,292.98 C560.72,291.89 558.64,291.00 557.35,291.00 C556.06,291.00 555.00,290.51 555.00,289.92 C555.00,289.32 554.44,289.02 553.76,289.25 C553.08,289.47 551.89,289.04 551.13,288.27 C550.37,287.51 549.13,287.12 548.37,287.41 C547.62,287.70 547.00,287.48 547.00,286.92 C547.00,286.37 546.44,285.99 545.75,286.07 C543.05,286.43 541.08,285.94 539.72,284.58 C538.94,283.80 535.67,282.67 532.46,282.08 C529.24,281.48 526.30,280.49 525.92,279.87 C525.54,279.25 524.76,279.03 524.20,279.38 C523.63,279.73 523.02,279.57 522.84,279.04 C522.65,278.50 520.26,277.79 517.52,277.47 C514.78,277.14 512.24,276.39 511.88,275.81 C511.52,275.22 510.67,275.08 510.00,275.50 C509.33,275.92 508.48,275.77 508.11,275.18 C507.74,274.59 505.87,273.94 503.94,273.74 C502.01,273.54 499.88,273.04 499.21,272.63 C498.55,272.22 497.53,272.17 496.96,272.53 C496.38,272.88 495.28,272.64 494.50,272.00 C493.72,271.36 492.60,271.13 492.00,271.50 C491.40,271.87 490.27,271.64 489.49,270.99 C488.71,270.34 487.49,270.02 486.78,270.27 C486.08,270.52 484.80,270.37 483.93,269.93 C483.07,269.49 478.35,268.83 473.44,268.47 C468.52,268.10 463.77,267.41 462.88,266.93 C461.98,266.45 459.95,266.09 458.37,266.13 C456.79,266.16 452.12,265.86 448.00,265.44 C434.35,264.08 391.45,264.64 379.00,266.35 C372.67,267.22 365.02,268.18 362.00,268.48 C358.98,268.78 354.02,269.49 351.00,270.06 C347.98,270.62 344.72,271.10 343.77,271.11 C342.82,271.12 341.78,271.55 341.46,272.06 C341.14,272.58 339.39,273.00 337.56,273.00 C335.73,273.00 332.04,273.64 329.36,274.43 C326.69,275.21 321.35,276.63 317.50,277.59 C313.65,278.55 309.83,279.66 309.00,280.06 C308.17,280.46 303.98,281.83 299.69,283.09 C295.39,284.36 291.65,285.75 291.38,286.20 C291.11,286.64 290.12,287.00 289.19,287.01 C288.26,287.01 286.21,287.68 284.64,288.51 C283.06,289.33 281.32,290.00 280.76,290.00 C277.88,290.00 231.23,313.63 228.27,316.58 C227.50,317.36 226.21,318.00 225.43,318.00 C224.64,318.00 224.00,318.45 224.00,319.00 C224.00,319.55 223.32,320.00 222.50,320.00 C221.68,320.00 221.00,320.45 221.00,321.00 C221.00,321.55 220.39,322.00 219.65,322.00 C218.92,322.00 217.50,322.90 216.50,324.00 C215.50,325.10 214.20,326.00 213.60,326.00 C212.99,326.00 211.19,327.13 209.59,328.50 C208.00,329.88 206.42,331.00 206.09,331.00 C205.77,331.00 204.30,332.01 202.84,333.25 C201.38,334.49 199.19,336.17 197.97,337.00 C195.61,338.59 192.33,341.20 188.53,344.50 C187.27,345.60 184.04,348.29 181.37,350.49 C170.65,359.26 137.63,393.44 134.60,398.89 C134.11,399.77 132.98,401.23 132.10,402.12 C131.22,403.00 129.82,404.73 129.00,405.96 C127.60,408.03 125.43,410.84 123.02,413.71 C122.46,414.37 122.00,415.35 122.00,415.87 C122.00,416.40 121.66,416.98 121.25,417.17 C120.11,417.67 112.00,429.76 112.00,430.95 C112.00,431.53 111.60,432.00 111.12,432.00 C110.63,432.00 109.94,432.79 109.57,433.75 C108.38,436.92 106.54,440.00 105.84,440.00 C105.46,440.00 104.64,441.58 104.00,443.50 C103.36,445.42 102.48,447.00 102.03,447.00 C101.58,447.00 100.54,448.69 99.70,450.75 C98.87,452.81 96.57,457.17 94.59,460.44 C92.62,463.71 91.00,467.20 91.00,468.19 C91.00,469.19 90.47,470.00 89.83,470.00 C89.19,470.00 88.95,470.28 89.30,470.63 C89.65,470.98 88.82,473.15 87.47,475.47 C86.11,477.78 85.30,479.97 85.67,480.33 C86.03,480.70 85.81,481.00 85.17,481.00 C84.53,481.00 84.08,481.34 84.17,481.75 C84.27,482.16 83.86,483.62 83.26,485.00 C81.45,489.14 80.67,491.46 80.84,492.25 C80.93,492.66 80.55,493.00 80.00,493.00 C79.45,493.00 79.05,493.34 79.12,493.75 C79.18,494.16 79.13,494.84 78.99,495.25 C78.86,495.66 78.65,496.34 78.54,496.75 C78.42,497.16 78.03,498.29 77.66,499.25 C77.30,500.21 76.70,501.79 76.34,502.75 C75.97,503.71 75.60,504.73 75.50,505.00 C75.40,505.27 75.07,506.17 74.76,507.00 C74.45,507.83 73.63,510.75 72.94,513.50 C72.25,516.25 71.25,519.06 70.72,519.75 C70.19,520.44 70.09,521.00 70.50,521.00 C70.91,521.00 70.78,521.56 70.22,522.25 C69.65,522.94 68.92,524.96 68.59,526.75 C68.27,528.54 67.73,531.46 67.41,533.25 C67.08,535.04 66.45,536.95 66.01,537.50 C65.57,538.05 64.93,540.30 64.58,542.50 C64.24,544.70 63.77,547.40 63.53,548.50 C62.75,552.16 62.00,555.97 61.60,558.40 C61.38,559.72 60.95,561.63 60.64,562.65 C60.34,563.67 59.81,566.97 59.47,570.00 C59.12,573.03 58.64,577.08 58.38,579.00 C58.13,580.92 57.73,584.08 57.51,586.00 C57.28,587.92 56.82,591.75 56.49,594.50 C54.66,609.55 55.23,648.17 57.58,668.00 C57.81,669.92 58.18,673.08 58.40,675.00 C59.03,680.51 60.01,687.24 60.63,690.33 C60.94,691.88 61.39,694.36 61.63,695.83 C62.41,700.53 62.83,702.50 63.04,702.50 C63.16,702.50 63.37,703.40 63.52,704.50 C63.67,705.60 64.09,707.85 64.46,709.50 C64.83,711.15 65.27,713.40 65.44,714.50 C65.61,715.60 65.84,716.50 65.95,716.50 C66.06,716.50 66.32,717.17 66.52,718.00 C66.72,718.83 67.12,720.40 67.41,721.50 C67.70,722.60 68.42,725.53 69.00,728.00 C69.58,730.47 70.34,733.17 70.69,734.00 C71.37,735.59 71.39,735.67 72.17,738.00 C72.45,738.83 73.45,741.75 74.39,744.50 C75.33,747.25 76.23,749.95 76.40,750.50 C76.71,751.53 77.24,753.00 78.57,756.50 C78.99,757.60 79.38,758.72 79.45,759.00 C79.52,759.28 80.07,760.40 80.69,761.50 C81.30,762.60 81.90,763.95 82.03,764.50 C82.74,767.65 83.84,770.26 89.49,782.22 C91.50,786.46 93.07,790.23 92.98,790.60 C92.90,790.97 93.22,791.55 93.70,791.89 C94.17,792.22 96.08,795.65 97.94,799.50 C99.80,803.35 101.67,806.73 102.10,807.02 C102.53,807.31 103.36,808.66 103.95,810.02 C104.54,811.38 105.93,813.85 107.03,815.50 C108.12,817.15 109.30,819.29 109.63,820.25 C109.96,821.21 110.63,822.00 111.12,822.00 C111.60,822.00 112.00,822.67 112.00,823.50 C112.00,824.33 112.45,825.00 113.00,825.00 C113.55,825.00 114.00,825.67 114.00,826.50 C114.00,827.33 114.45,828.00 115.00,828.00 C115.55,828.00 116.00,828.67 116.00,829.50 C116.00,830.33 116.45,831.00 117.00,831.00 C117.55,831.00 118.00,831.67 118.00,832.50 C118.00,833.33 118.45,834.00 119.00,834.00 C119.55,834.00 120.00,834.67 120.00,835.50 C120.00,836.33 120.45,837.00 121.00,837.00 C121.55,837.00 122.01,837.56 122.02,838.25 C122.02,838.94 123.26,840.92 124.77,842.65 C126.27,844.38 128.18,846.78 129.00,847.99 C129.82,849.19 131.40,851.24 132.50,852.54 C133.60,853.84 135.49,856.17 136.71,857.70 C143.16,865.89 146.83,869.87 161.49,884.59 C178.00,901.19 194.32,915.62 200.87,919.43 C201.76,919.95 203.35,921.18 204.43,922.18 C205.50,923.18 206.71,924.00 207.12,924.00 C207.52,924.00 208.45,924.59 209.18,925.30 C214.08,930.14 242.93,947.21 259.56,955.11 C271.28,960.67 284.21,966.16 290.00,968.04 C291.38,968.49 295.65,970.03 299.50,971.47 C318.65,978.63 355.67,986.67 382.00,989.37 C398.06,991.03 441.10,991.40 454.79,990.01 ZM 476.00 699.06 C474.62,698.61 472.49,698.47 471.25,698.73 C469.88,699.03 469.00,698.74 469.00,697.99 C469.00,697.26 468.20,696.98 467.00,697.29 C465.90,697.58 464.78,697.46 464.52,697.03 C464.25,696.60 462.85,696.25 461.40,696.25 C459.96,696.25 458.40,695.64 457.94,694.90 C457.48,694.16 456.80,693.86 456.43,694.24 C455.56,695.10 448.00,691.28 448.00,689.98 C448.00,689.44 447.33,689.00 446.50,689.00 C445.67,689.00 445.00,688.58 445.00,688.07 C445.00,687.55 444.07,686.84 442.93,686.48 C437.66,684.81 429.45,674.80 423.25,662.50 C416.00,648.11 411.44,624.34 412.31,605.50 C412.61,598.90 413.40,591.25 414.06,588.50 C416.77,577.13 420.50,565.20 422.79,560.55 C425.12,555.84 429.85,548.07 431.04,547.00 C431.35,546.72 432.59,545.07 433.81,543.33 C435.03,541.59 438.83,538.19 442.26,535.77 C466.40,518.81 494.66,519.11 519.00,536.59 C523.25,539.65 525.19,541.94 529.54,549.08 C530.11,550.02 531.16,551.49 531.87,552.34 C532.58,553.20 533.26,554.49 533.38,555.20 C533.50,555.92 534.15,557.51 534.83,558.75 C535.51,559.99 535.86,561.00 535.60,561.00 C535.35,561.00 535.59,562.46 536.13,564.25 C538.77,572.90 539.48,584.66 537.49,586.65 C536.55,587.59 533.33,588.00 526.82,587.99 C514.17,587.97 513.66,587.77 512.05,582.19 C511.31,579.61 510.08,576.25 509.32,574.73 C507.39,570.88 499.96,563.39 497.25,562.56 C496.01,562.18 495.00,561.42 495.00,560.87 C495.00,560.33 494.55,560.16 494.00,560.50 C493.45,560.84 493.00,560.66 493.00,560.10 C493.00,557.86 476.13,556.69 468.71,558.41 C461.88,560.00 457.51,562.68 451.85,568.74 C447.50,573.40 442.91,581.65 441.96,586.49 C441.91,586.75 441.41,588.43 440.84,590.23 C439.07,595.87 438.55,601.13 438.59,613.00 C438.62,626.20 438.97,629.98 440.32,631.77 C440.85,632.47 441.00,633.33 440.65,633.68 C440.30,634.03 440.52,634.92 441.13,635.66 C441.74,636.40 441.91,637.00 441.50,637.00 C441.09,637.00 441.32,637.67 442.00,638.50 C442.68,639.33 442.97,640.00 442.63,640.00 C440.80,640.00 449.02,652.32 454.10,657.19 C461.61,664.37 468.35,667.12 480.00,667.75 C491.00,668.35 496.00,666.96 501.67,661.73 C507.50,656.36 510.15,651.03 510.76,643.43 C511.49,634.28 512.53,634.14 488.18,646.35 C479.59,650.66 473.82,651.92 471.51,650.01 C469.26,648.14 469.24,587.87 471.49,586.01 C472.31,585.33 473.65,585.03 474.47,585.35 C475.29,585.66 484.30,591.11 494.50,597.46 L 513.04 609.00 L 524.83 609.00 C532.89,609.00 537.18,609.41 538.39,610.29 C539.99,611.46 540.14,613.60 540.04,632.98 C539.98,644.92 539.50,654.89 538.97,655.53 C538.45,656.17 538.28,656.95 538.61,657.28 C538.93,657.60 538.82,658.46 538.37,659.18 C537.91,659.91 537.48,660.72 537.43,661.00 C536.85,663.85 531.76,674.38 530.75,674.83 C530.34,675.02 529.99,675.69 529.99,676.33 C529.97,677.78 518.65,689.00 517.21,689.00 C516.64,689.00 516.02,689.34 515.83,689.75 C515.30,690.95 506.90,694.78 502.00,696.05 C499.52,696.70 496.83,697.48 496.00,697.79 C495.17,698.09 493.60,698.42 492.50,698.50 C491.40,698.59 487.80,698.94 484.50,699.27 C481.20,699.60 477.38,699.51 476.00,699.06 ZM 647.23 697.85 C646.83,697.46 644.45,696.90 641.94,696.61 C636.69,696.01 634.00,695.12 634.00,694.00 C634.00,693.57 632.09,692.45 629.75,691.52 C623.98,689.21 614.92,679.85 611.11,672.25 C606.04,662.15 603.20,644.20 606.20,641.20 C607.02,640.38 611.79,640.00 621.16,640.00 L 634.92 640.00 L 635.91 643.75 C636.46,645.81 637.07,648.62 637.28,650.00 C638.86,660.38 649.16,667.89 660.26,666.73 C667.16,666.02 669.83,664.64 673.75,659.80 C676.64,656.23 677.00,655.10 676.97,649.64 C676.93,642.51 674.18,637.00 669.10,633.92 C667.40,632.88 666.00,631.57 666.00,631.01 C666.00,630.46 665.32,630.00 664.48,630.00 C662.27,630.00 639.00,618.16 639.00,617.03 C639.00,616.51 637.20,615.59 635.00,615.00 C632.80,614.41 631.00,613.49 631.00,612.96 C631.00,612.43 630.53,612.00 629.96,612.00 C627.69,612.00 617.60,601.88 614.36,596.35 C607.94,585.40 606.45,568.73 610.65,554.88 C614.25,543.02 625.60,530.94 636.50,527.37 C639.25,526.47 641.98,525.36 642.56,524.90 C643.15,524.44 647.87,523.77 653.06,523.41 C664.15,522.65 673.08,524.43 682.21,529.23 C688.68,532.64 698.00,541.13 698.00,543.63 C698.00,544.02 698.69,545.10 699.53,546.03 C700.37,546.96 701.26,548.73 701.49,549.97 C701.73,551.20 702.42,552.80 703.03,553.54 C704.39,555.17 705.50,567.88 704.60,571.46 L 703.95 574.05 L 689.72 573.78 L 675.50 573.50 L 674.96 569.46 C674.33,564.76 670.48,558.00 668.42,558.00 C667.64,558.00 667.00,557.52 667.00,556.94 C667.00,556.36 666.55,556.16 666.00,556.50 C665.45,556.84 665.00,556.61 665.00,556.00 C665.00,555.39 664.58,555.14 664.07,555.46 C663.56,555.77 662.89,555.63 662.59,555.15 C661.69,553.70 652.42,553.93 648.67,555.49 C642.94,557.89 641.19,561.00 641.21,568.76 C641.22,572.47 641.68,576.40 642.24,577.50 C644.75,582.47 652.31,587.87 668.05,595.92 C687.34,605.78 694.17,610.19 699.36,616.11 C702.92,620.17 706.50,626.57 706.15,628.25 C706.07,628.66 706.50,629.00 707.11,629.00 C707.72,629.00 707.97,629.63 707.68,630.40 C707.38,631.17 707.42,632.09 707.76,632.43 C710.06,634.73 709.70,659.51 707.31,663.27 C706.88,663.95 706.48,664.72 706.43,665.00 C706.37,665.28 705.99,666.40 705.57,667.50 C705.15,668.60 704.35,670.74 703.78,672.25 C703.22,673.76 702.39,675.00 701.95,675.00 C701.50,675.00 700.83,675.96 700.46,677.13 C698.40,683.62 682.40,694.58 671.50,696.97 C665.66,698.25 648.28,698.88 647.23,697.85 ZM 152.98 694.43 C151.90,691.60 151.57,533.42 152.62,528.12 L 153.25 525.00 L 171.15 525.00 L 189.05 525.00 L 190.12 527.75 C190.72,529.26 191.34,531.17 191.52,532.00 C191.70,532.83 191.94,533.50 192.05,533.50 C192.16,533.50 192.41,534.40 192.60,535.50 C193.34,539.87 194.19,543.57 194.77,545.00 C195.11,545.83 195.47,546.95 195.58,547.50 C195.68,548.05 195.86,548.72 195.96,549.00 C196.27,549.81 196.85,552.28 197.49,555.50 C197.81,557.15 198.73,560.30 199.53,562.50 C200.88,566.25 201.28,567.92 202.65,575.50 C202.94,577.15 203.55,578.95 204.00,579.50 C204.45,580.05 205.07,581.85 205.39,583.50 C206.74,590.56 207.19,592.58 207.73,594.00 C208.05,594.83 208.39,595.95 208.50,596.50 C208.61,597.05 208.82,597.84 208.97,598.25 C209.13,598.66 209.35,599.34 209.46,599.75 C209.58,600.16 209.93,601.17 210.26,602.00 C210.58,602.83 211.06,604.62 211.33,606.00 C211.60,607.38 212.08,609.40 212.39,610.50 C212.71,611.60 213.47,614.70 214.09,617.38 C215.32,622.71 216.80,622.13 216.80,616.33 C216.80,614.47 217.25,612.40 217.81,611.72 C218.37,611.05 219.12,608.70 219.49,606.50 C219.85,604.30 220.57,601.38 221.08,600.00 C221.60,598.62 222.66,594.58 223.46,591.00 C224.25,587.42 225.81,581.12 226.93,577.00 C228.05,572.88 229.45,566.86 230.05,563.63 C230.64,560.40 231.54,557.03 232.03,556.13 C232.53,555.23 234.59,547.85 236.62,539.73 L 240.31 524.96 L 258.90 525.23 L 277.50 525.50 L 277.76 611.28 L 278.01 697.05 L 262.76 696.78 L 247.50 696.50 L 247.24 654.25 C247.10,631.01 246.61,612.00 246.16,612.00 C245.05,612.00 243.17,615.82 242.47,619.50 C241.87,622.64 241.29,625.16 240.96,626.00 C240.86,626.28 240.66,626.95 240.54,627.50 C240.41,628.05 240.20,628.72 240.08,629.00 C239.95,629.28 239.67,630.17 239.46,631.00 C239.25,631.83 238.59,634.30 238.00,636.50 C237.41,638.70 236.75,641.17 236.54,642.00 C236.33,642.83 236.08,643.50 236.00,643.50 C235.92,643.50 235.68,644.17 235.48,645.00 C235.28,645.83 234.83,647.62 234.47,649.00 C234.11,650.38 233.60,652.62 233.33,654.00 C233.06,655.38 232.58,657.17 232.26,658.00 C231.93,658.83 231.60,659.72 231.50,660.00 C231.40,660.28 231.04,661.17 230.69,662.00 C230.34,662.83 229.80,664.85 229.48,666.50 C229.16,668.15 228.76,670.17 228.60,671.00 C228.37,672.22 225.96,672.55 215.66,672.78 C208.70,672.93 203.00,672.85 203.00,672.59 C203.00,672.19 200.65,663.96 192.39,635.50 C191.59,632.75 190.31,627.73 189.54,624.34 C188.77,620.95 187.43,616.81 186.57,615.14 C185.71,613.47 185.00,610.05 185.00,607.55 C185.00,605.05 184.64,603.00 184.20,603.00 C183.76,603.00 183.59,624.15 183.83,650.00 L 184.25 697.00 L 169.10 697.00 L 153.95 697.00 L 152.98 694.43 ZM 289.00 695.71 C289.00,695.00 290.33,690.16 291.95,684.96 C293.57,679.76 295.38,673.25 295.97,670.50 C296.55,667.75 297.44,664.60 297.95,663.50 C299.47,660.15 302.83,648.90 304.49,641.57 C305.35,637.76 306.43,634.16 306.89,633.57 C307.35,632.98 309.16,627.55 310.91,621.50 C312.66,615.45 315.64,605.55 317.52,599.50 C319.41,593.45 321.48,586.25 322.12,583.50 C322.77,580.75 323.86,577.15 324.55,575.50 C325.24,573.85 326.34,569.80 327.01,566.50 C327.67,563.20 328.56,560.05 328.97,559.50 C329.39,558.95 331.39,552.97 333.43,546.21 C338.40,529.74 339.59,527.11 342.59,525.96 C343.99,525.43 351.20,525.00 358.61,525.00 C377.13,525.00 378.33,525.71 380.56,538.00 C380.90,539.92 381.55,541.95 382.00,542.50 C382.45,543.05 383.07,544.85 383.39,546.50 C384.75,553.60 385.20,555.59 385.74,557.00 C386.07,557.83 386.42,558.84 386.54,559.25 C386.65,559.66 386.87,560.34 387.03,560.75 C387.18,561.16 387.39,561.95 387.50,562.50 C387.61,563.05 387.95,564.17 388.27,565.00 C388.58,565.83 389.06,567.62 389.33,569.00 C390.12,573.01 391.32,577.51 392.27,580.00 C392.58,580.83 393.06,582.62 393.33,584.00 C393.79,586.32 394.72,590.12 395.41,592.50 C395.57,593.05 395.99,594.17 396.35,595.00 C397.07,596.69 399.04,605.70 399.18,608.00 C399.23,608.83 399.63,609.96 400.07,610.52 C400.50,611.08 401.40,614.68 402.05,618.52 C402.71,622.36 403.68,626.04 404.21,626.71 C404.74,627.37 404.90,628.35 404.57,628.89 C404.24,629.42 404.46,630.16 405.05,630.53 C405.65,630.90 405.90,631.82 405.61,632.57 C405.32,633.32 405.47,634.17 405.93,634.45 C406.39,634.74 407.08,637.45 407.45,640.47 C407.83,643.49 408.59,646.25 409.14,646.59 C409.69,646.92 409.90,647.82 409.61,648.57 C409.32,649.32 409.49,650.18 409.98,650.49 C410.47,650.79 410.86,651.82 410.84,652.77 C410.83,653.72 411.11,655.62 411.46,657.00 C411.82,658.38 412.23,659.95 412.37,660.50 C412.51,661.05 412.91,662.40 413.27,663.50 C413.94,665.54 414.71,669.16 415.62,674.50 C416.05,677.04 416.69,679.61 418.62,686.50 C419.21,688.64 420.22,693.57 420.36,695.00 C420.48,696.28 418.14,696.50 404.67,696.50 C386.51,696.50 387.12,696.79 385.11,687.29 C383.33,678.88 382.11,676.26 379.67,675.61 C378.48,675.29 367.33,675.02 354.90,675.01 C334.65,675.00 332.15,675.18 330.73,676.75 C329.86,677.71 329.11,678.84 329.07,679.25 C329.03,679.66 328.97,680.11 328.92,680.25 C328.49,681.65 327.93,684.02 327.44,686.50 C326.75,690.03 324.98,693.99 323.32,695.75 C321.60,697.58 289.00,697.54 289.00,695.71 ZM 368.86 665.94 C377.28,664.01 386.27,656.13 390.91,646.64 C393.02,642.32 393.48,639.72 393.82,630.32 C394.28,617.34 392.35,609.28 386.43,599.46 C382.56,593.03 373.91,584.00 371.63,584.00 C370.81,584.00 369.53,583.39 368.78,582.64 C366.56,580.42 355.26,578.90 348.79,579.95 C340.73,581.26 335.93,584.21 330.46,591.18 C329.32,592.64 325.04,601.56 324.91,602.75 C324.87,603.16 324.50,603.95 324.10,604.50 C322.02,607.32 322.08,631.76 324.16,634.58 C324.60,635.17 325.12,636.52 325.31,637.58 C325.76,640.08 330.28,649.40 331.25,649.83 C331.66,650.02 332.00,650.60 332.00,651.13 C332.00,651.66 334.59,654.55 337.75,657.56 C346.31,665.71 357.18,668.64 368.86,665.94 ZM 555.89 695.37 C554.73,693.97 554.45,680.17 554.22,612.87 C554.06,568.41 554.31,530.57 554.78,528.77 L 555.63 525.50 L 571.93 525.22 C582.95,525.04 588.67,525.32 589.59,526.08 C591.54,527.69 591.65,690.18 589.71,694.00 C588.45,696.49 588.36,696.50 572.86,696.77 C559.29,697.01 557.11,696.83 555.89,695.37 ZM 367.25 641.88 C365.46,641.37 364.00,640.56 364.00,640.08 C364.00,638.60 351.39,636.76 346.14,637.48 C341.77,638.08 341.03,637.92 340.08,636.15 C338.53,633.25 338.75,629.45 340.55,627.96 C341.57,627.11 345.09,626.69 350.80,626.73 C357.90,626.78 360.69,627.29 365.97,629.49 C375.00,633.26 377.45,636.42 374.96,641.07 C373.84,643.16 372.27,643.33 367.25,641.88 ZM 374.25 623.97 C373.01,623.47 372.00,622.68 372.00,622.22 C372.00,621.76 369.75,620.80 367.00,620.10 C364.25,619.39 362.00,618.36 362.00,617.80 C362.00,617.24 361.38,617.02 360.62,617.31 C359.86,617.61 358.84,617.44 358.34,616.94 C357.84,616.44 353.53,615.81 348.77,615.55 C344.01,615.28 338.96,614.78 337.55,614.42 C334.70,613.71 333.41,610.48 334.40,606.53 C335.43,602.44 337.92,601.82 348.79,602.93 C361.03,604.19 370.14,606.96 377.10,611.54 C383.42,615.71 384.28,618.98 380.03,622.75 C377.21,625.25 377.37,625.22 374.25,623.97 Z" fill="rgb(253,253,253)"/>
</g>
</svg>